<svg width="80" height="80" viewBox="0 0 80 80" fill="none" xmlns="http://www.w3.org/2000/svg">
<path fill-rule="evenodd" clip-rule="evenodd" d="M30 20H40H50V30H40H30V20ZM20 50V40V30H30V40V50H20ZM20 60H10V50H20V60ZM20 60H30H40V70H30H20V60Z" fill="#DB8E00"/>
<path fill-rule="evenodd" clip-rule="evenodd" d="M20 10H30V20V30H20V40V50H10V40V30V20H20V10ZM30 50V60H20V50H30ZM50 50H40H30V40V30H40H50V40V50ZM60 40V50H50V60H40V70H50H60V60H70V50V40V30H60V20H50V30H60V40Z" fill="#F2C42B"/>
<path fill-rule="evenodd" clip-rule="evenodd" d="M40 10H30V20H40H50H60V30H50V40V50H40H30V60H40H50V50H60V40V30H70V20H60V10H50H40Z" fill="#FEE7A4"/>
<path fill-rule="evenodd" clip-rule="evenodd" d="M30 0H20V10H10V20H0V30V40V50V60H10V70H20V80H30H40H50H60V70H70V60H80V50V40V30V20H70V10H60V0H50H40H30ZM70 50V40V30V20H60V10H50H40H30H20V20H10V30V40V50V60H20V70H30H40H50H60V60H70V50Z" fill="#31312F"/>
</svg>
